<svg width="17" height="13" viewBox="0 0 17 13" fill="none" xmlns="http://www.w3.org/2000/svg">
<rect width="17" height="13" fill="white"/>
<path d="M15.0208 8.7905L14.8369 8.95987L15.0208 8.7905L10.1313 3.48199C9.68713 2.9998 9.09581 2.75 8.50001 2.75C7.90421 2.75 7.31289 2.9998 6.86876 3.48198L1.97923 8.7905C1.67359 9.12232 1.67359 9.66046 1.97923 9.99228C2.29572 10.3359 2.82542 10.3359 3.14192 9.99228L8.03146 4.68377C8.2924 4.40046 8.70762 4.40046 8.96856 4.68377L13.8581 9.99228C14.1746 10.3359 14.7043 10.3359 15.0208 9.99228C15.3264 9.66046 15.3264 9.12232 15.0208 8.7905Z" fill="#5D7285" stroke="#5D7285" stroke-width="0.5"/>
</svg>
